<svg width="60" height="60" viewBox="0 0 60 60" fill="none" xmlns="http://www.w3.org/2000/svg">
<circle cx="30" cy="30" r="30" fill="black"/>
<path d="M27.3387 35.6562C27.3387 35.7266 27.3152 35.7969 27.2684 35.8672C27.2449 35.9141 27.2215 35.9727 27.198 36.043C27.1746 36.2773 27.1395 36.418 27.0926 36.4648C27.0691 36.7227 27.034 36.8633 26.9871 36.8867C26.9637 36.9102 26.9754 36.9453 27.0223 36.9922C26.9285 37.0391 26.8699 37.1328 26.8465 37.2734C26.823 37.3906 26.7879 37.5078 26.741 37.625C26.6941 37.7422 26.6473 37.8594 26.6004 37.9766C26.577 38.0703 26.5418 38.1641 26.4949 38.2578C26.4715 38.4219 26.4598 38.5273 26.4598 38.5742C26.4598 38.5977 26.4363 38.6328 26.3895 38.6797L26.1785 39.1016C26.1785 39.2188 26.1551 39.3125 26.1082 39.3828C26.0613 39.4531 26.0496 39.5352 26.073 39.6289C25.909 39.9336 25.8152 40.2031 25.7918 40.4375C25.5809 40.625 25.4637 40.7656 25.4402 40.8594C25.2527 41 25.1473 41.082 25.1238 41.1055C25.1238 41.1289 25.1121 41.1523 25.0887 41.1758C24.9949 41.1758 24.9246 41.1875 24.8777 41.2109C24.8309 41.2578 24.7605 41.2812 24.6668 41.2812C24.4324 41.3281 24.2684 41.375 24.1746 41.4219C24.034 41.4453 23.9402 41.4688 23.8934 41.4922C23.8465 41.5156 23.7996 41.5391 23.7527 41.5625C23.6824 41.5625 23.6121 41.5508 23.5418 41.5273C23.4715 41.5273 23.3777 41.5273 23.2605 41.5273C23.1668 41.5273 23.073 41.5391 22.9793 41.5625C22.8855 41.5859 22.7918 41.5977 22.698 41.5977C22.5105 41.5742 22.3934 41.5625 22.3465 41.5625C22.2996 41.5859 22.2527 41.5977 22.2059 41.5977C21.948 41.5508 21.784 41.5273 21.7137 41.5273C21.6434 41.5508 21.573 41.5625 21.5027 41.5625C21.2449 41.5156 21.1043 41.4922 21.0809 41.4922C21.0809 41.5156 21.0691 41.5273 21.0457 41.5273C20.7645 41.5039 20.5301 41.4688 20.3426 41.4219C20.1785 41.4453 20.0613 41.4453 19.991 41.4219C19.9207 41.3984 19.8504 41.4219 19.7801 41.4922C19.5691 41.4688 19.4402 41.4336 19.3934 41.3867C19.3699 41.3633 19.3465 41.375 19.323 41.4219C19.0418 41.2812 18.8543 41.1992 18.7605 41.1758C18.6902 41.1758 18.6316 41.1406 18.5848 41.0703C18.5145 41.1172 18.4324 41.1172 18.3387 41.0703C18.2684 41.0469 18.2098 41.0586 18.1629 41.1055C18.0223 41.0117 17.8934 40.9648 17.7762 40.9648C17.6355 40.8711 17.4832 40.8125 17.3191 40.7891C17.0848 40.7188 16.9559 40.6836 16.9324 40.6836C16.7215 40.6133 16.5926 40.5664 16.5457 40.543C16.3348 40.4023 16.1824 40.3086 16.0887 40.2617C16.0184 40.2148 15.9246 40.1914 15.8074 40.1914L15.3855 39.9453C15.1277 39.8047 14.9871 39.7227 14.9637 39.6992C14.9402 39.6758 14.8934 39.6641 14.823 39.6641C14.6355 39.5 14.5184 39.4062 14.4715 39.3828C14.448 39.3359 14.4012 39.3125 14.3309 39.3125L13.9441 39.0312C13.7098 38.9375 13.5691 38.8555 13.5223 38.7852C13.4988 38.7148 13.452 38.6914 13.3816 38.7148C13.241 38.5977 13.1473 38.5156 13.1004 38.4688C13.0535 38.3984 12.9715 38.3633 12.8543 38.3633C12.5965 38.1758 12.4324 38.0469 12.3621 37.9766C12.3152 37.9062 12.2449 37.8594 12.1512 37.8359C12.1277 37.6719 12.0574 37.5547 11.9402 37.4844C11.9168 37.3672 11.8816 37.2852 11.8348 37.2383C11.7879 37.168 11.741 37.0859 11.6941 36.9922C11.366 36.8047 11.1199 36.5352 10.9559 36.1836C10.8621 36.0898 10.7918 35.9844 10.7449 35.8672C10.7215 35.75 10.6746 35.6328 10.6043 35.5156C10.5574 35.4688 10.5223 35.3984 10.4988 35.3047C10.4754 35.2109 10.4402 35.1406 10.3934 35.0938C10.3465 35 10.2996 34.8945 10.2527 34.7773C10.2293 34.6602 10.1824 34.5664 10.1121 34.4961C10.1355 34.3789 10.1238 34.2969 10.077 34.25C10.0535 34.1797 10.0418 34.1094 10.0418 34.0391C9.90117 33.8516 9.81914 33.7227 9.7957 33.6523C9.7957 33.5586 9.77227 33.4883 9.72539 33.4414C9.63164 33.2539 9.58477 33.1484 9.58477 33.125C9.6082 33.1016 9.6082 33.0664 9.58477 33.0195C9.53789 32.9492 9.50274 32.8672 9.4793 32.7734C9.45586 32.6562 9.4207 32.5508 9.37383 32.457C9.32695 32.293 9.2918 32.1875 9.26836 32.1406C9.26836 32.0703 9.24492 32.0117 9.19805 31.9648C9.15117 31.707 9.12774 31.4844 9.12774 31.2969C9.12774 31.0859 9.08086 30.9219 8.98711 30.8047C9.03399 30.6172 9.0457 30.5234 9.02227 30.5234C8.99883 30.5 8.98711 30.4648 8.98711 30.418C8.98711 30.1836 8.98711 29.9961 8.98711 29.8555C8.98711 29.7383 8.97539 29.6211 8.95195 29.5039C8.92852 29.3633 8.90508 29.2344 8.88164 29.1172C8.88164 28.9531 8.88164 28.8125 8.88164 28.6953C8.88164 28.5547 8.86992 28.4141 8.84649 28.2734C8.84649 28.1094 8.83477 28.0039 8.81133 27.957C8.81133 27.9102 8.82305 27.875 8.84649 27.8516C8.84649 27.5938 8.84649 27.3711 8.84649 27.1836C8.84649 26.9961 8.89336 26.8438 8.98711 26.7266C9.03399 26.4688 9.0457 26.3047 9.02227 26.2344C9.02227 26.1406 9.01055 26.0586 8.98711 25.9883C9.05742 25.6602 9.09258 25.4609 9.09258 25.3906C9.09258 25.2969 9.1043 25.2031 9.12774 25.1094L9.19805 24.6172L9.30352 24.125C9.37383 24.0078 9.40899 23.9023 9.40899 23.8086C9.43242 23.7148 9.46758 23.6328 9.51445 23.5625C9.56133 23.3984 9.58477 23.2695 9.58477 23.1758C9.58477 23.082 9.6082 22.9883 9.65508 22.8945C9.72539 22.7773 9.76055 22.707 9.76055 22.6836C9.76055 22.6367 9.78399 22.5898 9.83086 22.543C9.97149 22.3789 10.0301 22.2852 10.0066 22.2617C10.0066 22.2383 10.0184 22.2148 10.0418 22.1914C10.0887 22.0508 10.1238 21.9688 10.1473 21.9453C10.1707 21.9219 10.1941 21.8867 10.2176 21.8398C10.3113 21.6055 10.3699 21.4766 10.3934 21.4531C10.5574 21.2422 10.6395 21.0898 10.6395 20.9961C10.8035 20.7852 10.8855 20.6797 10.8855 20.6797C10.8855 20.6562 10.909 20.6328 10.9559 20.6094C11.073 20.4688 11.1316 20.3867 11.1316 20.3633C11.1551 20.3164 11.1902 20.2695 11.2371 20.2227C11.4012 19.9883 11.4832 19.8711 11.4832 19.8711C11.4832 19.8477 11.4949 19.8242 11.5184 19.8008C11.7293 19.6133 11.8348 19.5078 11.8348 19.4844C11.8348 19.4609 11.8465 19.4375 11.8699 19.4141C11.9871 19.2266 12.0809 19.0977 12.1512 19.0273C12.2449 18.9336 12.3152 18.875 12.3621 18.8516C12.409 18.8047 12.4324 18.7578 12.4324 18.7109C12.5496 18.6875 12.6316 18.6523 12.6785 18.6055C12.7488 18.5352 12.8426 18.4766 12.9598 18.4297C13.1941 18.1953 13.323 18.0547 13.3465 18.0078C13.5105 17.8672 13.5809 17.7852 13.5574 17.7617C13.5574 17.7383 13.5691 17.7148 13.5926 17.6914C13.7566 17.5977 13.8621 17.5391 13.909 17.5156C13.9793 17.4688 14.0379 17.4219 14.0848 17.375C14.2254 17.2578 14.3074 17.1875 14.3309 17.1641C14.3777 17.1172 14.4246 17.0703 14.4715 17.0234C14.7996 16.8828 15.0223 16.7539 15.1395 16.6367L15.5965 16.4961C15.7605 16.4258 15.8895 16.3203 15.9832 16.1797C16.2645 16.1094 16.4168 16.0625 16.4402 16.0391C16.6043 15.9219 16.698 15.8633 16.7215 15.8633C16.7684 15.8398 16.8035 15.8047 16.827 15.7578C17.0145 15.7344 17.1199 15.7227 17.1434 15.7227C17.1902 15.6992 17.2371 15.6758 17.284 15.6523C17.4949 15.5586 17.6355 15.5117 17.7059 15.5117C17.7996 15.5117 17.8699 15.5 17.9168 15.4766C18.1277 15.3828 18.2332 15.3477 18.2332 15.3711C18.2566 15.3711 18.2801 15.3594 18.3035 15.3359C18.3738 15.3125 18.4324 15.2891 18.4793 15.2656C18.5496 15.2422 18.6199 15.2187 18.6902 15.1953C18.9246 15.125 19.077 15.0898 19.1473 15.0898C19.2176 15.0898 19.2996 15.0664 19.3934 15.0195C19.6277 14.9023 19.7801 14.8555 19.8504 14.8789C19.9207 14.8789 19.9793 14.8672 20.0262 14.8438C20.2605 14.8203 20.4012 14.7969 20.448 14.7734C20.5184 14.7266 20.577 14.6914 20.6238 14.668C20.741 14.6445 20.8465 14.6328 20.9402 14.6328C21.0574 14.6328 21.1863 14.6328 21.327 14.6328C21.4441 14.6094 21.5613 14.5859 21.6785 14.5625C21.8191 14.5391 21.9598 14.5273 22.1004 14.5273H22.6629C22.7332 14.5977 22.827 14.6328 22.9441 14.6328C23.0848 14.6094 23.2254 14.5977 23.366 14.5977C23.6473 14.6211 23.8113 14.6445 23.8582 14.668C23.9051 14.668 23.952 14.668 23.9988 14.668C24.2566 14.7383 24.409 14.7734 24.4559 14.7734C24.5262 14.75 24.6082 14.7617 24.702 14.8086C24.7723 14.832 24.8309 14.8672 24.8777 14.9141C24.9246 14.9609 24.9832 15.0078 25.0535 15.0547C25.1004 15.1016 25.1473 15.1484 25.1941 15.1953C25.241 15.2422 25.2879 15.2891 25.3348 15.3359C25.3348 15.5234 25.3699 15.6523 25.4402 15.7227C25.5105 15.957 25.5574 16.1211 25.5809 16.2148C25.6043 16.3086 25.6395 16.4023 25.6863 16.4961C25.7332 16.7773 25.8035 16.9648 25.8973 17.0586C25.9207 17.3164 25.9441 17.4453 25.9676 17.4453C26.0848 17.6562 26.1316 17.7969 26.1082 17.8672C26.1082 17.9141 26.1199 17.9609 26.1434 18.0078C26.2137 18.1016 26.2605 18.1836 26.284 18.2539C26.3074 18.3242 26.366 18.3828 26.4598 18.4297C26.5066 18.6641 26.5418 18.8281 26.5652 18.9219C26.6121 19.0156 26.659 19.1094 26.7059 19.2031C26.7996 19.4844 26.8348 19.6367 26.8113 19.6602C26.8113 19.6836 26.8113 19.7188 26.8113 19.7656C26.8113 19.8125 26.8113 19.8828 26.8113 19.9766C26.8348 20.0469 26.8582 20.1406 26.8816 20.2578C26.7879 20.4219 26.7293 20.5156 26.7059 20.5391C26.6824 20.5625 26.659 20.5977 26.6355 20.6445C26.448 20.668 26.3426 20.7031 26.3191 20.75C26.3191 20.7734 26.2957 20.8086 26.2488 20.8555C26.1551 20.8555 26.0613 20.8438 25.9676 20.8203C25.8973 20.7969 25.8387 20.8086 25.7918 20.8555C25.534 20.832 25.3816 20.832 25.3348 20.8555C25.3113 20.8555 25.2762 20.8555 25.2293 20.8555C25.1824 20.8555 25.1121 20.8438 25.0184 20.8203C24.948 20.7969 24.8895 20.7852 24.8426 20.7852C24.7488 20.7383 24.6434 20.7031 24.5262 20.6797C24.409 20.6562 24.3152 20.6445 24.2449 20.6445C24.0809 20.668 23.952 20.6797 23.8582 20.6797C23.7879 20.6562 23.6941 20.6328 23.577 20.6094C23.3895 20.7266 23.1785 20.7383 22.9441 20.6445C22.8973 20.6914 22.827 20.7148 22.7332 20.7148C22.6395 20.7148 22.5691 20.75 22.5223 20.8203C22.3348 20.8203 22.1941 20.832 22.1004 20.8555C21.7488 20.9258 21.5145 20.9609 21.3973 20.9609C21.0691 21.0547 20.8465 21.1367 20.7293 21.207C20.6355 21.2539 20.5301 21.3008 20.4129 21.3477C20.3191 21.3945 20.202 21.4648 20.0613 21.5586C19.8973 21.6758 19.7918 21.7344 19.7449 21.7344C19.698 21.7344 19.6512 21.7461 19.6043 21.7695C19.5574 21.8164 19.4988 21.8633 19.4285 21.9102C19.3816 21.9336 19.323 21.9688 19.2527 22.0156C19.159 22.1328 19.0535 22.2383 18.9363 22.332C18.8191 22.4258 18.702 22.5312 18.5848 22.6484C18.5379 22.6953 18.491 22.7422 18.4441 22.7891C18.3973 22.8359 18.3504 22.8828 18.3035 22.9297C18.1395 23.0469 18.034 23.1406 17.9871 23.2109C17.9402 23.2578 17.8934 23.3164 17.8465 23.3867C17.5652 23.5742 17.4012 23.7031 17.3543 23.7734C17.2137 23.8906 17.0848 24.0664 16.9676 24.3008C16.8738 24.5352 16.8152 24.6641 16.7918 24.6875C16.7684 24.7109 16.7566 24.7461 16.7566 24.793C16.5457 25.0039 16.4402 25.1562 16.4402 25.25C16.4402 25.3438 16.4168 25.4141 16.3699 25.4609C16.2762 25.6719 16.2176 25.7891 16.1941 25.8125C16.1941 25.8359 16.1941 25.8711 16.1941 25.918C16.1707 25.9648 16.1355 26.0352 16.0887 26.1289C16.0652 26.1992 16.0535 26.2812 16.0535 26.375C15.9363 26.5625 15.8777 26.6914 15.8777 26.7617C15.9012 26.8086 15.8895 26.832 15.8426 26.832C15.7957 27.1133 15.7605 27.2773 15.7371 27.3242C15.7371 27.3711 15.7254 27.418 15.702 27.4648C15.6785 27.7461 15.6668 27.8984 15.6668 27.9219C15.6902 27.9453 15.702 27.9805 15.702 28.0273C15.6082 28.2617 15.5613 28.4141 15.5613 28.4844C15.5613 28.5312 15.5613 28.5781 15.5613 28.625C15.5145 28.9766 15.5262 29.1523 15.5965 29.1523C15.573 29.5039 15.5496 29.7852 15.5262 29.9961C15.5262 30.207 15.5496 30.418 15.5965 30.6289C15.6434 30.8398 15.6785 30.9922 15.702 31.0859C15.7254 31.1562 15.7371 31.25 15.7371 31.3672C15.7605 31.4844 15.7723 31.5781 15.7723 31.6484C15.7723 31.7188 15.7957 31.8008 15.8426 31.8945C16.0066 32.2461 16.1473 32.5156 16.2645 32.7031C16.4754 32.9375 16.5809 33.0781 16.5809 33.125C16.6043 33.1484 16.6395 33.1836 16.6863 33.2305C16.7801 33.5117 16.8621 33.6875 16.9324 33.7578C17.0027 33.8047 17.0848 33.8633 17.1785 33.9336C17.2957 34.0273 17.3777 34.0977 17.4246 34.1445C17.4715 34.168 17.5301 34.1797 17.6004 34.1797C17.6473 34.2734 17.7176 34.3438 17.8113 34.3906C17.9051 34.4375 18.0105 34.4844 18.1277 34.5312C18.3621 34.6719 18.491 34.7539 18.5145 34.7773C18.5613 34.8008 18.6082 34.8125 18.6551 34.8125C18.8895 34.8828 19.0066 34.9531 19.0066 35.0234C19.241 35.1172 19.3699 35.1641 19.3934 35.1641C19.4168 35.1406 19.4285 35.1523 19.4285 35.1992C19.5457 35.1992 19.6395 35.2227 19.7098 35.2695C19.8035 35.293 19.8855 35.3281 19.9559 35.375C20.2137 35.3984 20.3543 35.4219 20.3777 35.4453C20.4246 35.4688 20.4832 35.4922 20.5535 35.5156C20.6707 35.5391 20.7879 35.5508 20.9051 35.5508C21.0223 35.5508 21.116 35.5742 21.1863 35.6211C21.3738 35.6211 21.4793 35.6211 21.5027 35.6211C21.5262 35.6211 21.5613 35.6445 21.6082 35.6914C21.866 35.7148 22.0184 35.7266 22.0652 35.7266C22.1355 35.7031 22.1941 35.6914 22.241 35.6914C22.4988 35.7617 22.6395 35.7852 22.6629 35.7617C22.9207 35.7383 23.0965 35.7383 23.1902 35.7617C23.284 35.7617 23.3777 35.7383 23.4715 35.6914C23.7059 35.6914 23.8348 35.7031 23.8582 35.7266C23.8816 35.7266 23.9051 35.7266 23.9285 35.7266C23.9988 35.7266 24.0691 35.7148 24.1395 35.6914C24.2332 35.6445 24.3152 35.6094 24.3855 35.5859C24.573 35.6094 24.6785 35.6094 24.702 35.5859C24.7488 35.5625 24.7957 35.5391 24.8426 35.5156C25.1238 35.5156 25.2996 35.4805 25.3699 35.4102C25.4871 35.4102 25.5809 35.3984 25.6512 35.375C25.7449 35.3516 25.8152 35.3281 25.8621 35.3047C26.1434 35.2344 26.284 35.1641 26.284 35.0938C26.3777 35.1172 26.4598 35.1406 26.5301 35.1641C26.6004 35.1875 26.6824 35.1875 26.7762 35.1641C26.823 35.2109 26.8816 35.2695 26.952 35.3398C27.0223 35.3867 27.0926 35.4102 27.1629 35.4102L27.3387 35.6562ZM42.3645 30.1719C42.4582 30.0078 42.5168 29.9141 42.5402 29.8906C42.5637 29.8438 42.5637 29.7852 42.5402 29.7148C42.6574 29.5039 42.7277 29.3867 42.7512 29.3633C42.7746 29.3398 42.8098 29.3047 42.8566 29.2578C42.8566 29.0938 42.8684 28.9531 42.8918 28.8359C42.9387 28.6953 42.9855 28.5664 43.0324 28.4492C43.0559 28.3789 43.0676 28.3086 43.0676 28.2383C43.0676 28.168 43.0793 28.0977 43.1027 28.0273C43.1965 27.7695 43.2551 27.6172 43.2785 27.5703C43.302 27.5234 43.3254 27.4766 43.3488 27.4297C43.4426 27.1953 43.4895 27.0547 43.4895 27.0078L43.5949 26.375C43.6652 26.1641 43.6887 26.0352 43.6652 25.9883C43.6652 25.9414 43.6887 25.918 43.7355 25.918C43.8059 25.6133 43.841 25.3906 43.841 25.25C43.8645 25.1094 43.9113 24.9688 43.9816 24.8281C44.0051 24.6406 44.0168 24.5117 44.0168 24.4414C44.0402 24.3711 44.0637 24.2891 44.0871 24.1953C44.1105 24.125 44.1223 24.0547 44.1223 23.9844C44.1457 23.9141 44.1691 23.8203 44.1926 23.7031C44.2629 23.4453 44.2863 23.2578 44.2629 23.1406C44.2629 23.0234 44.2746 22.9062 44.298 22.7891L44.4387 22.3672C44.4621 22.2734 44.4855 22.2031 44.509 22.1562C44.5559 22.0859 44.5559 22.0156 44.509 21.9453C44.5559 21.8984 44.5793 21.8398 44.5793 21.7695C44.6027 21.6992 44.6262 21.6289 44.6496 21.5586C44.7199 21.3945 44.7551 21.2773 44.7551 21.207C44.7551 21.1133 44.7551 21.0312 44.7551 20.9609C44.802 20.7266 44.8254 20.5508 44.8254 20.4336C44.8254 20.3398 44.8371 20.2227 44.8605 20.082C44.884 19.9414 44.9074 19.8125 44.9309 19.6953C44.9777 19.6484 45.0012 19.5664 45.0012 19.4492C45.0246 19.332 45.048 19.2148 45.0715 19.0977C45.1184 18.8164 45.1535 18.6523 45.177 18.6055C45.2238 18.5352 45.2473 18.4766 45.2473 18.4297C45.2473 18.1953 45.2473 18.0664 45.2473 18.043C45.2707 18.0195 45.2824 17.9961 45.2824 17.9727C45.3293 17.832 45.3645 17.7383 45.3879 17.6914C45.4113 17.6445 45.423 17.5977 45.423 17.5508C45.4934 17.2461 45.5285 17.082 45.5285 17.0586C45.552 16.9414 45.5637 16.8242 45.5637 16.707C45.5637 16.5898 45.5754 16.4727 45.5988 16.3555C45.6223 16.1211 45.634 15.9922 45.634 15.9688C45.6809 15.6641 45.716 15.4531 45.7395 15.3359C45.7863 15.2187 45.8332 15.1016 45.8801 14.9844C46.2316 14.7266 46.466 14.5977 46.5832 14.5977C46.7238 14.5977 46.8527 14.6094 46.9699 14.6328C47.0871 14.6562 47.1809 14.668 47.2512 14.668C47.4152 14.668 47.5559 14.6914 47.673 14.7383C47.7902 14.7852 47.9191 14.7969 48.0598 14.7734L48.7629 14.8789C48.9973 14.9258 49.1262 14.9375 49.1496 14.9141C49.1965 14.8906 49.2434 14.8672 49.2902 14.8438L49.8879 14.8789C50.1457 14.9258 50.2863 14.9492 50.3098 14.9492C50.3332 14.9492 50.3684 14.9375 50.4152 14.9141C50.509 14.9375 50.673 14.9492 50.9074 14.9492C51.1887 14.9961 51.3527 15.0195 51.3996 15.0195C51.4465 14.9961 51.4934 14.9844 51.5402 14.9844C51.8215 15.125 51.9621 15.2187 51.9621 15.2656C51.9855 15.3125 52.0207 15.3594 52.0676 15.4062C52.091 15.4531 52.1027 15.5117 52.1027 15.582C52.1027 15.6523 52.1145 15.7461 52.1379 15.8633C52.1379 16.0742 52.1262 16.2734 52.1027 16.4609C52.1027 16.625 52.0559 16.7656 51.9621 16.8828C51.9621 17.1172 51.9152 17.2812 51.8215 17.375C51.8215 17.8672 51.7277 18.2773 51.5402 18.6055C51.3996 18.793 51.3293 18.9219 51.3293 18.9922C51.3293 19.0625 51.3059 19.1211 51.259 19.168C51.2121 19.3789 51.1652 19.5547 51.1184 19.6953C51.0949 19.8359 51.0598 20.0117 51.0129 20.2227C50.8488 20.6211 50.7551 20.8555 50.7316 20.9258C50.6848 21.043 50.6496 21.1602 50.6262 21.2773C50.6027 21.3945 50.5676 21.5 50.5207 21.5938C50.4738 21.7812 50.4504 21.9102 50.4504 21.9805C50.4035 22.0742 50.3684 22.168 50.3449 22.2617C50.3449 22.332 50.3332 22.3906 50.3098 22.4375C50.2863 22.6719 50.2629 22.8242 50.2395 22.8945C50.216 22.9648 50.1926 23.0352 50.1691 23.1055C50.052 23.3867 49.9582 23.6328 49.8879 23.8438C49.8645 23.9375 49.841 24.0312 49.8176 24.125C49.7941 24.1953 49.7707 24.2773 49.7473 24.3711C49.6301 24.5586 49.5363 24.7695 49.466 25.0039C49.4191 25.2148 49.3605 25.4375 49.2902 25.6719C49.2434 25.7891 49.1965 25.8945 49.1496 25.9883C49.1262 26.082 49.1027 26.1875 49.0793 26.3047C49.0559 26.375 49.0441 26.4453 49.0441 26.5156C49.0441 26.5625 49.0324 26.6211 49.009 26.6914C48.9621 26.8555 48.9387 26.9727 48.9387 27.043C48.9387 27.0898 48.927 27.1367 48.9035 27.1836C48.8801 27.2305 48.8566 27.2891 48.8332 27.3594C48.8098 27.4297 48.7863 27.5 48.7629 27.5703C48.7395 27.8281 48.716 27.9805 48.6926 28.0273C48.6691 28.0742 48.6574 28.1211 48.6574 28.168C48.634 28.2852 48.6223 28.4023 48.6223 28.5195C48.6223 28.6133 48.5988 28.707 48.552 28.8008C48.5285 28.8945 48.5051 28.9766 48.4816 29.0469C48.4582 29.1172 48.4348 29.1875 48.4113 29.2578C48.3879 29.375 48.3762 29.4805 48.3762 29.5742C48.3762 29.668 48.3645 29.7734 48.341 29.8906C48.2941 30.0312 48.259 30.1367 48.2355 30.207C48.2355 30.2773 48.2355 30.3477 48.2355 30.418C48.2121 30.4883 48.177 30.5703 48.1301 30.6641C48.0832 30.7344 48.0832 30.8164 48.1301 30.9102C48.0832 30.957 48.0598 31.0273 48.0598 31.1211C48.0598 31.1914 48.0363 31.2617 47.9895 31.332C47.9191 31.5664 47.884 31.7188 47.884 31.7891C47.9074 31.8594 47.9074 31.918 47.884 31.9648C47.8605 32.0352 47.8254 32.1055 47.7785 32.1758C47.7551 32.2227 47.7434 32.2812 47.7434 32.3516L47.5676 33.3359C47.4973 33.6406 47.4504 33.8281 47.427 33.8984C47.427 33.9453 47.4152 34.0039 47.3918 34.0742C47.2746 34.332 47.216 34.4727 47.216 34.4961C47.1926 34.5664 47.1809 34.6484 47.1809 34.7422C47.2043 34.8125 47.2043 34.8828 47.1809 34.9531C47.0871 35.1875 47.0402 35.3398 47.0402 35.4102C47.0637 35.457 47.052 35.5039 47.0051 35.5508C47.0285 35.668 47.0168 35.7852 46.9699 35.9023C46.9465 35.9961 46.9113 36.1016 46.8645 36.2188C46.841 36.3359 46.8059 36.4414 46.759 36.5352C46.7355 36.6289 46.7004 36.7344 46.6535 36.8516C46.5598 37.1328 46.5129 37.3438 46.5129 37.4844C46.4191 37.5781 46.3371 37.7422 46.2668 37.9766C46.1965 38.1875 46.1613 38.3164 46.1613 38.3633C46.1848 38.4102 46.1848 38.457 46.1613 38.5039C46.091 38.6445 46.0559 38.7383 46.0559 38.7852C46.0559 38.8086 46.0441 38.8438 46.0207 38.8906C45.9035 39.125 45.8332 39.2773 45.8098 39.3477C45.8098 39.3945 45.8098 39.4414 45.8098 39.4883C45.7629 39.6523 45.716 39.7695 45.6691 39.8398C45.6457 39.8867 45.6223 39.957 45.5988 40.0508C45.5754 40.1211 45.5637 40.2031 45.5637 40.2969C45.5871 40.3672 45.5871 40.4492 45.5637 40.543C45.5168 40.5898 45.4582 40.6367 45.3879 40.6836C45.341 40.7305 45.2941 40.8008 45.2473 40.8945C45.177 40.918 45.1066 40.9531 45.0363 41C44.9895 41.0703 44.9074 41.1289 44.7902 41.1758C44.5324 41.2227 44.3918 41.2461 44.3684 41.2461C44.3684 41.2695 44.3449 41.293 44.298 41.3164C44.2043 41.3398 44.1105 41.3516 44.0168 41.3516C43.9465 41.3516 43.8645 41.3516 43.7707 41.3516C43.7004 41.3516 43.6301 41.3398 43.5598 41.3164C43.5129 41.3164 43.4309 41.3164 43.3137 41.3164C42.7512 41.2461 42.3176 41.2812 42.0129 41.4219C41.8254 41.375 41.6496 41.3516 41.4855 41.3516C41.3215 41.3516 41.1457 41.3281 40.9582 41.2812C40.8645 41.2578 40.7824 41.2227 40.7121 41.1758C40.6418 41.1523 40.548 41.1523 40.4309 41.1758C40.2902 41.0117 40.1965 40.9297 40.1496 40.9297C40.1027 40.9062 40.0676 40.8711 40.0441 40.8242C39.9035 40.4961 39.8098 40.2852 39.7629 40.1914C39.716 40.0977 39.6691 40.0039 39.6223 39.9102C39.5754 39.793 39.5285 39.6641 39.4816 39.5234C39.4582 39.3594 39.423 39.1953 39.3762 39.0312C39.3293 38.9141 39.2941 38.8086 39.2707 38.7148C39.2473 38.5977 39.2121 38.4805 39.1652 38.3633C39.0715 38.1055 39.0129 37.9414 38.9895 37.8711C38.9895 37.8008 38.966 37.7422 38.9191 37.6953C38.8488 37.4844 38.802 37.3203 38.7785 37.2031C38.6848 36.8984 38.6262 36.7227 38.6027 36.6758C38.6027 36.6055 38.5793 36.5352 38.5324 36.4648C38.4855 36.3945 38.4621 36.3008 38.4621 36.1836C38.4621 36.043 38.4387 35.9492 38.3918 35.9023C38.2746 35.5742 38.1809 35.3047 38.1105 35.0938C38.0637 34.8594 38.0051 34.6484 37.9348 34.4609C37.8176 34.1797 37.759 34.0039 37.759 33.9336C37.759 33.8633 37.7473 33.8047 37.7238 33.7578C37.677 33.6875 37.6418 33.6172 37.6184 33.5469C37.6184 33.4766 37.5949 33.4062 37.548 33.3359C37.5012 33.1484 37.4777 33.0312 37.4777 32.9844C37.4777 32.9375 37.4543 32.8906 37.4074 32.8438C37.3137 32.6094 37.2668 32.4805 37.2668 32.457C37.2902 32.4102 37.2902 32.3633 37.2668 32.3164C37.2199 32.1055 37.173 31.9648 37.1262 31.8945C37.0793 31.8242 37.0793 31.7656 37.1262 31.7188C37.0793 31.6719 37.0441 31.6133 37.0207 31.543C37.0207 31.4492 36.9973 31.3789 36.9504 31.332C36.8801 31.1211 36.8215 30.957 36.7746 30.8398C36.7512 30.7227 36.716 30.6172 36.6691 30.5234C36.6926 30.3828 36.6809 30.2539 36.634 30.1367C36.5871 30.0195 36.5402 29.9023 36.4934 29.7852C36.4465 29.5273 36.4113 29.3984 36.3879 29.3984C36.3645 29.375 36.3527 29.3398 36.3527 29.293C36.3059 29.1523 36.2707 29.0469 36.2473 28.9766C36.2238 28.9062 36.2004 28.8359 36.177 28.7656C36.1535 28.6953 36.1301 28.625 36.1066 28.5547C36.0832 28.4609 36.0715 28.3906 36.0715 28.3438C35.9543 28.1562 35.8723 28.0508 35.8254 28.0273C35.802 27.9805 35.7902 27.9336 35.7902 27.8867C35.7668 27.6523 35.7316 27.4648 35.6848 27.3242C35.6379 27.207 35.591 27.1016 35.5441 27.0078C35.5207 26.8906 35.4855 26.7734 35.4387 26.6562C35.298 26.3516 35.2043 26.1641 35.1574 26.0938C35.0871 25.8594 35.0051 25.6484 34.9113 25.4609C34.841 25.25 34.7824 25.0977 34.7355 25.0039C34.6652 24.6992 34.6066 24.4883 34.5598 24.3711C34.5129 24.1367 34.4543 23.9375 34.384 23.7734C34.3137 23.5625 34.2668 23.4336 34.2434 23.3867C34.2199 23.3164 34.2082 23.2578 34.2082 23.2109C34.091 23 33.9973 22.7188 33.927 22.3672C33.8566 22.0625 33.7746 21.8164 33.6809 21.6289C33.634 21.3711 33.5871 21.2188 33.5402 21.1719L33.4348 20.6797C33.3879 20.5391 33.3527 20.4336 33.3293 20.3633C33.3293 20.293 33.3293 20.2344 33.3293 20.1875C33.3059 20.1172 33.2707 19.9883 33.2238 19.8008C33.1535 19.5898 33.0949 19.4492 33.048 19.3789C33.0246 19.2852 32.966 19.2031 32.8723 19.1328C32.8957 19.0156 32.884 18.8867 32.8371 18.7461C32.7668 18.5117 32.7199 18.3711 32.6965 18.3242C32.673 18.2773 32.6496 18.2305 32.6262 18.1836C32.5793 18.0664 32.5559 17.9609 32.5559 17.8672C32.5559 17.75 32.5441 17.6562 32.5207 17.5859C32.4973 17.5156 32.4738 17.4453 32.4504 17.375C32.427 17.3047 32.4035 17.2461 32.3801 17.1992C32.3566 17.1523 32.3215 17.0938 32.2746 17.0234C32.2512 16.9531 32.2277 16.8945 32.2043 16.8477C32.1574 16.7773 32.134 16.707 32.134 16.6367C32.1105 16.5664 32.0754 16.4727 32.0285 16.3555C31.9582 16.1445 31.923 15.9805 31.923 15.8633C31.923 15.6992 31.9113 15.5938 31.8879 15.5469C31.841 15.5 31.8293 15.4531 31.8527 15.4062C31.9699 15.2187 32.052 15.1133 32.0988 15.0898C32.1223 15.0664 32.1457 15.0313 32.1691 14.9844C32.4738 14.9375 32.7082 14.9141 32.8723 14.9141C33.0598 14.9141 33.2355 14.9023 33.3996 14.8789C33.5402 14.8789 33.6691 14.8789 33.7863 14.8789C33.9035 14.8555 34.0324 14.8438 34.173 14.8438C34.4074 14.8672 34.5246 14.8789 34.5246 14.8789C34.5246 14.8555 34.5363 14.8438 34.5598 14.8438C34.6301 14.8438 34.7004 14.8555 34.7707 14.8789C34.8645 14.8789 34.9582 14.8672 35.052 14.8438C35.1223 14.8438 35.1926 14.832 35.2629 14.8086C35.3332 14.7852 35.3918 14.7734 35.4387 14.7734C35.7199 14.7031 35.884 14.6914 35.9309 14.7383C36.0012 14.7852 36.0598 14.7617 36.1066 14.668C36.2238 14.7383 36.3293 14.7617 36.423 14.7383C36.5402 14.7148 36.6574 14.7266 36.7746 14.7734C36.9387 14.7969 37.0324 14.8203 37.0559 14.8438C37.0793 14.8438 37.1145 14.8438 37.1613 14.8438C37.2785 14.8672 37.3957 14.8789 37.5129 14.8789C37.6535 14.8555 37.7707 14.8789 37.8645 14.9492C38.0988 14.9023 38.2043 14.9141 38.1809 14.9844C38.1809 15.0313 38.2043 15.0664 38.2512 15.0898C38.3684 15.2539 38.4504 15.3594 38.4973 15.4062C38.5441 15.4531 38.5793 15.5117 38.6027 15.582C38.6262 15.8164 38.6496 15.9805 38.673 16.0742C38.7199 16.1445 38.7434 16.2383 38.7434 16.3555C38.7668 16.4727 38.7785 16.5547 38.7785 16.6016C38.7785 16.6484 38.7902 16.6953 38.8137 16.7422C38.8371 16.8828 38.8605 16.9883 38.884 17.0586C38.9074 17.1289 38.9191 17.1875 38.9191 17.2344C38.966 17.3516 38.9895 17.457 38.9895 17.5508C38.9895 17.6445 39.0012 17.75 39.0246 17.8672C39.0715 17.9609 39.0949 18.043 39.0949 18.1133C39.1184 18.1836 39.1418 18.2422 39.1652 18.2891C39.2355 18.5 39.2707 18.6523 39.2707 18.7461C39.2707 18.8398 39.2824 18.9219 39.3059 18.9922C39.3762 19.25 39.3996 19.3906 39.3762 19.4141C39.3762 19.4141 39.3762 19.4258 39.3762 19.4492C39.4465 19.6133 39.4816 19.7305 39.4816 19.8008C39.5051 19.8477 39.5402 19.8945 39.5871 19.9414C39.634 20.1289 39.6574 20.2695 39.6574 20.3633C39.6809 20.4336 39.7043 20.5039 39.7277 20.5742C39.7512 20.6445 39.7746 20.7266 39.798 20.8203C39.8215 20.8906 39.8566 20.9492 39.9035 20.9961C39.8801 21.1367 39.8918 21.2773 39.9387 21.418C39.9855 21.5352 40.0324 21.6523 40.0793 21.7695C40.1496 22.0273 40.1848 22.2031 40.1848 22.2969C40.1848 22.3672 40.2082 22.4375 40.2551 22.5078C40.3957 22.8828 40.5012 23.1758 40.5715 23.3867C40.6184 23.5742 40.677 23.7734 40.7473 23.9844C40.841 24.1953 40.8879 24.4062 40.8879 24.6172C41.0051 24.8984 41.0637 25.0977 41.0637 25.2148C41.0637 25.3086 41.0754 25.4023 41.0988 25.4961C41.1457 25.7305 41.2043 25.8828 41.2746 25.9531C41.3215 26.2109 41.3449 26.375 41.3449 26.4453C41.3449 26.4922 41.3566 26.5391 41.3801 26.5859C41.4504 26.7969 41.4855 26.9727 41.4855 27.1133C41.5559 27.3242 41.591 27.4766 41.591 27.5703C41.6145 27.6406 41.6613 27.6992 41.7316 27.7461C41.8723 28.1445 41.9543 28.4844 41.9777 28.7656C42.0012 29.0469 42.0715 29.2812 42.1887 29.4688C42.2355 29.7031 42.259 29.8672 42.259 29.9609C42.2824 30.0547 42.3176 30.125 42.3645 30.1719Z" fill="white"/>
</svg>
